<?xml version="1.0" encoding="UTF-8" standalone="no"?>
<svg xmlns:rdf="http://www.w3.org/1999/02/22-rdf-syntax-ns#" xmlns="http://www.w3.org/2000/svg" height="320.74mm" width="320.74mm" version="1.1" xmlns:cc="http://creativecommons.org/ns#" xmlns:xlink="http://www.w3.org/1999/xlink" viewBox="0 0 1136.4726 1136.4727" xmlns:dc="http://purl.org/dc/elements/1.1/">
<g transform="translate(611.21 -1810)">
<g id="k" transform="matrix(.25 0 0 .25 -32.231 1783.7)">
<g transform="matrix(4 0 0 4 -573.96 -1123.6)">
<path d="m162.02 438.96c-8.7709-4.7573-16.589-16.211-16.589-24.302 0-0.65892-2.081-2.9033-4.6246-4.9875-10.211-8.3669-10.643-16.31-2.2562-41.451 5.5223-16.555 3.4438-33.22-3.2117-40.584-3.631-4.0174-0.32572-5.8714 6.6034-2.9762 7.7084 3.2208 18.445 16.506 18.479 22.867 0.009 1.6672 0.18143 1.6865 2.2323 0.25 3.1119-2.1797 4.7749-1.9391 4.7926 0.6933 0.0201 3.0022 2.2333 9.2215 3.4849 9.7932 1.5408 0.70376 10.258-12.909 11.973-18.697 3.7499-12.655-0.50003-24.705-6.3888-18.114-2.5865 3.4383-2.8667 3.242-6.5039 1.5076-12.406-5.9161-1.0741-19.655 12.105-14.676 14.392 5.4375 17.152 27.097 5.6789 44.557-2.1251 3.2339-4.2458 6.4819-4.7126 7.2177-0.51038 0.80438 0.24523 0.62095 1.895-0.46005l2.7439-1.7978-0.6947 4.6326-0.69471 4.6326 5.2997-1.4107c6.9753-1.8568 8.7879-1.7984 15.581 0.50176 15.614 5.2866 16.603 7.2788 3.7999 7.6503-6.0313 0.17498-8.4402 0.75603-12.663 3.0545l-5.215 2.8384 4.3531 0.74312c6.4433 0.7802 12.911 4.6978 15.944 7.7775 1.3837-1.8497 2.3715-3.9163 3.5803-5.5164 14.082-18.463 42.536 2.5304 29.744 21.945-1.6484 2.5017-2.2681 4.3575-1.7062 5.1097 4.5542 6.0974 4.8809 7.0158 4.8097 13.523-0.18343 16.756-21.448 23.482-29.117 9.2099-1.3795-2.5673-2.2869-3.2387-3.8106-2.8197-11.68 3.2119-21.958-1.1778-26.15-11.169-4.0707-9.702 2.2738-21.279 12.651-23.084l4.4985-0.78279-2.7298-1.8092c-9.8834-6.5505-19.866-3.9338-27.301 7.1564-7.355 10.97-11.474 14.238-17.951 14.238-6.4642 0-4.99 5.7273 3.4328 13.337 6.1582 5.5635 15.049 7.06 12.252 2.0622-3.3997-6.0749 6.7052-12.282 12.416-7.6268 13.824 11.268-9.0492 26.179-26.03 16.969zm19.726-0.86584c9.0405-4.6562 9.4108-15.549 0.49958-14.693-4.1642 0.39972-5.698 6.5131-1.8843 7.5104 4.6057 1.2044 0.0516 4.3292-6.2461 4.2858-7.529-0.0519-17.768-7.9946-19.863-15.409-1.6044-5.6773-5.822-8.9668-5.822-4.5408 0 13.518 22.058 28.645 33.316 22.847zm60.964-3.6278c8.1106-7.34 4.1299-25.635-4.836-22.226-1.4154 0.53814-4.5144 0.97843-6.8867 0.97843-4.1344 0-4.356 0.15549-5.3434 3.75-0.56657 2.0625-1.6132 5.1946-2.3258 6.9602-3.7435 9.2746 11.584 17.603 19.392 10.537zm-27.683-8.2937c3.149-1.5244 4.7602-3.1798 6.3157-6.4891 2.6627-5.6646 2.6374-6.0176-0.66172-9.2484-1.5125-1.4812-4.103-4.7232-5.7566-7.2046-2.376-3.5652-3.6802-4.5767-6.218-4.8225-16.493-1.5971-21.404 22.567-5.694 28.017 6.3431 2.2004 6.9747 2.1871 12.015-0.2527zm-51.47-16.39c1.8547-0.79065 4.7221-3.1459 6.3721-5.2338 3.7942-4.8013 8.3014-12.153 8.5-13.247 1.0776-5.9365 15.772-18.173 28.8-19.939l5.6999-0.77267-5.9322-1.2938c-8.1304-1.7733-15.225-0.9942-21.955 2.411-5.0359 2.5479-9.7513 2.8487-5.2605 0.33553 1.8382-1.0287 5.1752-7.6289 4.2998-8.5044-1.3386-1.3386-11.712 5.0504-13.767 8.4796-1.2206 2.036-3.6945 5.5478-5.4975 7.8039-2.7114 3.3928-3.3309 5.1042-3.5826 9.8982-0.26186 4.9875-0.69014 6.0834-3.0698 7.8548l-2.7654 2.0586-2.0621-2.0621c-3.1083-3.1083-1.1934-8.8177 5.3931-16.08 8.8199-9.7245 10.385-15.724 6.7224-25.772l-1.8224-5-1.8501 4.2398c-2.4116 5.5265-2.9567 5.3606-3.6238-1.1025-0.69402-6.7244-4.5557-15.011-10.037-20.387-7.9677-7.8152-8.002-8.4233-3.8946 3 3.4781 9.6728 2.6691 18.37-2.3283 32.783-7.9116 22.818-8.0898 28.397-1.1299 35.357 6.2194 6.2194 15.431 8.3102 22.791 5.1728zm74.86-1.8374c12.289-6.4988 9.7975-23.713-4.0324-27.857-16.108-4.826-24.966 20.298-9.9705 28.278 4.6294 2.4634 8.785 2.3385 14.003-0.42082zm-80.594-14.307c0.89853-2.3415 0.73612-5.4182-0.28602-5.4182-1.0832 0-2.107 2.4691-2.107 5.0818 0 2.3178 1.5491 2.5356 2.393 0.33642zm55.607 0.15871c0-6.56-16.227-12.598-24.532-9.128-4.8594 2.0304-4.3156 2.9212 1.3265 2.1727 6.0966-0.80875 13.5 1.3702 18.206 5.3583 3.9265 3.3277 5 3.6706 5 1.597zm-36.444-32.327c18.935-19.44 18.136-51.25-1.2885-51.25-5.8251 0-9.7568 6.5976-5.3403 8.9612 2.9103 1.5576 5.157 0.24649 4.8423-2.8258-0.58744-5.7364 6.8319-2.7043 10.516 4.2977 5.113 9.7171 2.0369 22.028-8.9363 35.764-7.2932 9.1294-7.151 12.607 0.20662 5.0534z"/>
</g>
<g transform="matrix(-4 0 0 4 471.36 -1123.6)">
<path d="m162.02 438.96c-8.7709-4.7573-16.589-16.211-16.589-24.302 0-0.65892-2.081-2.9033-4.6246-4.9875-10.211-8.3669-10.643-16.31-2.2562-41.451 5.5223-16.555 3.4438-33.22-3.2117-40.584-3.631-4.0174-0.32572-5.8714 6.6034-2.9762 7.7084 3.2208 18.445 16.506 18.479 22.867 0.009 1.6672 0.18143 1.6865 2.2323 0.25 3.1119-2.1797 4.7749-1.9391 4.7926 0.6933 0.0201 3.0022 2.2333 9.2215 3.4849 9.7932 1.5408 0.70376 10.258-12.909 11.973-18.697 3.7499-12.655-0.50003-24.705-6.3888-18.114-2.5865 3.4383-2.8667 3.242-6.5039 1.5076-12.406-5.9161-1.0741-19.655 12.105-14.676 14.392 5.4375 17.152 27.097 5.6789 44.557-2.1251 3.2339-4.2458 6.4819-4.7126 7.2177-0.51038 0.80438 0.24523 0.62095 1.895-0.46005l2.7439-1.7978-0.6947 4.6326-0.69471 4.6326 5.2997-1.4107c6.9753-1.8568 8.7879-1.7984 15.581 0.50176 15.614 5.2866 16.603 7.2788 3.7999 7.6503-6.0313 0.17498-8.4402 0.75603-12.663 3.0545l-5.215 2.8384 4.3531 0.74312c6.4433 0.7802 12.911 4.6978 15.944 7.7775 1.3837-1.8497 2.3715-3.9163 3.5803-5.5164 14.082-18.463 42.536 2.5304 29.744 21.945-1.6484 2.5017-2.2681 4.3575-1.7062 5.1097 4.5542 6.0974 4.8809 7.0158 4.8097 13.523-0.18343 16.756-21.448 23.482-29.117 9.2099-1.3795-2.5673-2.2869-3.2387-3.8106-2.8197-11.68 3.2119-21.958-1.1778-26.15-11.169-4.0707-9.702 2.2738-21.279 12.651-23.084l4.4985-0.78279-2.7298-1.8092c-9.8834-6.5505-19.866-3.9338-27.301 7.1564-7.355 10.97-11.474 14.238-17.951 14.238-6.4642 0-4.99 5.7273 3.4328 13.337 6.1582 5.5635 15.049 7.06 12.252 2.0622-3.3997-6.0749 6.7052-12.282 12.416-7.6268 13.824 11.268-9.0492 26.179-26.03 16.969zm19.726-0.86584c9.0405-4.6562 9.4108-15.549 0.49958-14.693-4.1642 0.39972-5.698 6.5131-1.8843 7.5104 4.6057 1.2044 0.0516 4.3292-6.2461 4.2858-7.529-0.0519-17.768-7.9946-19.863-15.409-1.6044-5.6773-5.822-8.9668-5.822-4.5408 0 13.518 22.058 28.645 33.316 22.847zm60.964-3.6278c8.1106-7.34 4.1299-25.635-4.836-22.226-1.4154 0.53814-4.5144 0.97843-6.8867 0.97843-4.1344 0-4.356 0.15549-5.3434 3.75-0.56657 2.0625-1.6132 5.1946-2.3258 6.9602-3.7435 9.2746 11.584 17.603 19.392 10.537zm-27.683-8.2937c3.149-1.5244 4.7602-3.1798 6.3157-6.4891 2.6627-5.6646 2.6374-6.0176-0.66172-9.2484-1.5125-1.4812-4.103-4.7232-5.7566-7.2046-2.376-3.5652-3.6802-4.5767-6.218-4.8225-16.493-1.5971-21.404 22.567-5.694 28.017 6.3431 2.2004 6.9747 2.1871 12.015-0.2527zm-51.47-16.39c1.8547-0.79065 4.7221-3.1459 6.3721-5.2338 3.7942-4.8013 8.3014-12.153 8.5-13.247 1.0776-5.9365 15.772-18.173 28.8-19.939l5.6999-0.77267-5.9322-1.2938c-8.1304-1.7733-15.225-0.9942-21.955 2.411-5.0359 2.5479-9.7513 2.8487-5.2605 0.33553 1.8382-1.0287 5.1752-7.6289 4.2998-8.5044-1.3386-1.3386-11.712 5.0504-13.767 8.4796-1.2206 2.036-3.6945 5.5478-5.4975 7.8039-2.7114 3.3928-3.3309 5.1042-3.5826 9.8982-0.26186 4.9875-0.69014 6.0834-3.0698 7.8548l-2.7654 2.0586-2.0621-2.0621c-3.1083-3.1083-1.1934-8.8177 5.3931-16.08 8.8199-9.7245 10.385-15.724 6.7224-25.772l-1.8224-5-1.8501 4.2398c-2.4116 5.5265-2.9567 5.3606-3.6238-1.1025-0.69402-6.7244-4.5557-15.011-10.037-20.387-7.9677-7.8152-8.002-8.4233-3.8946 3 3.4781 9.6728 2.6691 18.37-2.3283 32.783-7.9116 22.818-8.0898 28.397-1.1299 35.357 6.2194 6.2194 15.431 8.3102 22.791 5.1728zm74.86-1.8374c12.289-6.4988 9.7975-23.713-4.0324-27.857-16.108-4.826-24.966 20.298-9.9705 28.278 4.6294 2.4634 8.785 2.3385 14.003-0.42082zm-80.594-14.307c0.89853-2.3415 0.73612-5.4182-0.28602-5.4182-1.0832 0-2.107 2.4691-2.107 5.0818 0 2.3178 1.5491 2.5356 2.393 0.33642zm55.607 0.15871c0-6.56-16.227-12.598-24.532-9.128-4.8594 2.0304-4.3156 2.9212 1.3265 2.1727 6.0966-0.80875 13.5 1.3702 18.206 5.3583 3.9265 3.3277 5 3.6706 5 1.597zm-36.444-32.327c18.935-19.44 18.136-51.25-1.2885-51.25-5.8251 0-9.7568 6.5976-5.3403 8.9612 2.9103 1.5576 5.157 0.24649 4.8423-2.8258-0.58744-5.7364 6.8319-2.7043 10.516 4.2977 5.113 9.7171 2.0369 22.028-8.9363 35.764-7.2932 9.1294-7.151 12.607 0.20662 5.0534z"/>
</g>
</g>
<use id="j" xlink:href="#k" transform="matrix(.86603 -.5 .5 .86603 -1194.9 297.14)" height="100%" width="100%" y="0" x="0"/>
<use id="i" xlink:href="#j" transform="matrix(.86603 -.5 .5 .86603 -1194.9 297.14)" height="100%" width="100%" y="0" x="0"/>
<use id="h" xlink:href="#i" transform="matrix(.86603 -.5 .5 .86603 -1194.9 297.14)" height="100%" width="100%" y="0" x="0"/>
<use id="g" xlink:href="#h" transform="matrix(.86603 -.5 .5 .86603 -1194.9 297.14)" height="100%" width="100%" y="0" x="0"/>
<use id="f" xlink:href="#g" transform="matrix(.86603 -.5 .5 .86603 -1194.9 297.14)" height="100%" width="100%" y="0" x="0"/>
<use id="e" xlink:href="#f" transform="matrix(.86603 -.5 .5 .86603 -1194.9 297.14)" height="100%" width="100%" y="0" x="0"/>
<use id="d" xlink:href="#e" transform="matrix(.86603 -.5 .5 .86603 -1194.9 297.14)" height="100%" width="100%" y="0" x="0"/>
<use id="c" xlink:href="#d" transform="matrix(.86603 -.5 .5 .86603 -1194.9 297.14)" height="100%" width="100%" y="0" x="0"/>
<use id="b" xlink:href="#c" transform="matrix(.86603 -.5 .5 .86603 -1194.9 297.14)" height="100%" width="100%" y="0" x="0"/>
<use id="a" xlink:href="#b" transform="matrix(.86603 -.5 .5 .86603 -1194.9 297.14)" height="100%" width="100%" y="0" x="0"/>
<use xlink:href="#a" transform="matrix(.86603 -.5 .5 .86603 -1194.9 297.14)" height="100%" width="100%" y="0" x="0"/>
</g>
</svg>
