<?xml version="1.0" encoding="UTF-8" standalone="no"?>
<svg
   xmlns:dc="http://purl.org/dc/elements/1.1/"
   xmlns:cc="http://creativecommons.org/ns#"
   xmlns:rdf="http://www.w3.org/1999/02/22-rdf-syntax-ns#"
   xmlns:svg="http://www.w3.org/2000/svg"
   xmlns="http://www.w3.org/2000/svg"
   height="865.33112"
   width="1343.5365"
   version="1.0"
   viewBox="0 0 1259.5655 811.2479"
   id="svg2">
  <title
     id="title89157">Witch on Broomstick Silhouette</title>
  <defs
     id="defs35" />
  <metadata
     id="metadata34">
    <rdf:RDF>
      <cc:Work>
        <dc:format>image/svg+xml</dc:format>
        <dc:type
           rdf:resource="http://purl.org/dc/dcmitype/StillImage" />
        <cc:license
           rdf:resource="http://creativecommons.org/publicdomain/zero/1.0/" />
        <dc:publisher>
          <cc:Agent
             rdf:about="http://openclipart.org/">
            <dc:title>Openclipart</dc:title>
          </cc:Agent>
        </dc:publisher>
        <dc:title>Witch on Broomstick Silhouette</dc:title>
        <dc:date>2017-09-23</dc:date>
        <dc:creator>
          <cc:Agent>
            <dc:title>Urs Roesch</dc:title>
          </cc:Agent>
        </dc:creator>
        <dc:language>en</dc:language>
        <dc:contributor>
          <cc:Agent>
            <dc:title>GDJ</dc:title>
          </cc:Agent>
        </dc:contributor>
        <dc:subject>
          <rdf:Bag>
            <rdf:li>remix+222273</rdf:li>
            <rdf:li>witch</rdf:li>
            <rdf:li>black</rdf:li>
            <rdf:li>halloween</rdf:li>
            <rdf:li>walpurgis night</rdf:li>
            <rdf:li>caldron</rdf:li>
            <rdf:li>broom</rdf:li>
            <rdf:li>broomstick</rdf:li>
            <rdf:li>silhouette</rdf:li>
            <rdf:li>outline</rdf:li>
          </rdf:Bag>
        </dc:subject>
        <dc:description>Silhouette of flying witch on broomstick.</dc:description>
      </cc:Work>
      <cc:License
         rdf:about="http://creativecommons.org/publicdomain/zero/1.0/">
        <cc:permits
           rdf:resource="http://creativecommons.org/ns#Reproduction" />
        <cc:permits
           rdf:resource="http://creativecommons.org/ns#Distribution" />
        <cc:permits
           rdf:resource="http://creativecommons.org/ns#DerivativeWorks" />
      </cc:License>
    </rdf:RDF>
  </metadata>
  <path
     d="m 960.00832,750.49623 c 2.07272,-0.82688 3.37622,-2.00307 2.00616,-4.40035 -80.41649,-29.26181 -175.73024,-53.95237 -204.12299,-137.94225 -3.38475,-10.10549 -3.41719,-20.42024 -1.98281,-30.81599 4.95028,-21.65522 4.94522,-21.62925 27.17766,-17.26913 2.1149,0.41475 4.23731,0.741 6.28575,1.42528 6.17343,0.44494 9.88406,2.79506 8.96259,9.95166 -0.47794,11.0655 4.62797,22.28934 13.78378,27.95297 14.32528,-0.47794 18.62597,9.12384 21.438,20.76571 1.44787,5.99429 4.92047,11.26904 8.20425,16.50516 23.01694,33.31631 44.99297,57.51094 77.55956,69.588 68.46515,21.78159 127.93073,11.01112 183.34713,-4.84903 3.6651,-2.18935 8.6463,-2.898 9.4663,-8.32688 -1.2222,-2.82047 -3.839,-3.19922 -6.4034,-3.68372 -58.0971,2.80613 -113.80188,8.38229 -159.3507,-26.14846 -2.60193,-1.77891 -4.68609,-4.24088 -7.34343,-5.76103 0.09,0.0998 0.41128,0.22443 0.49322,0.29803 57.7935,53.53143 244.75221,29.82253 282.22631,-21.09507 4.9724,-6.01406 18.5345,-25.55437 11.9542,-29.865 -42.5539,39.88604 -104.0264,36.80494 -144.1291,24.77682 72.6686,-2.60682 122.814,-12.27919 164.3991,-55.69725 2.2994,-2.40075 4.9623,-4.78078 5.5856,-8.06588 -0.013,-0.86484 -0.224,-1.68047 -0.6138,-2.45315 -1.1367,-1.50075 -2.7271,-1.95272 -4.5132,-1.96107 -12.9767,4.18641 -25.7146,11.214 -39.434,13.17675 -43.5763,6.23419 -54.3916,7.95882 -131.9632,-5.05443 38.3204,11.57334 131.2826,9.10303 128.8659,-11.87907 -39.5409,6.00572 -85.6764,4.91119 -120.2923,-10.03856 -13.4412,-5.87587 -24.8892,-15.09075 -37.3654,-22.7069 -46.1511,-28.17272 -90.92852,-22.00603 -132.05804,-16.69688 -14.11875,1.8225 -27.15544,8.47603 -39.63666,15.49294 -5.36775,3.01772 -10.76793,4.16906 -16.86675,2.19609 -8.31684,-2.69053 -16.52915,-0.45028 -24.70481,1.25138 -2.69053,0.83034 -5.41209,1.56375 -8.14725,2.24747 -3.88959,1.41496 -7.35075,3.6869 -11.02847,5.51971 -3.89944,2.03457 -7.89506,1.18557 -11.81531,0.23579 -9.34594,-2.26454 -18.79687,-4.0245 -28.19869,-6.01791 -6.0434,-1.28128 -7.43887,-4.47009 -5.28515,-10.11347 3.97293,-10.41037 11.41425,-20.02106 11.784,-31.30153 1.26731,-38.66709 -22.38722,-51.70294 -48.14307,-68.98115 50.81569,-0.19285 109.37438,-13.55279 138.19753,-46.67963 21.80353,-25.05909 31.25119,-59.84475 59.3624,-74.74828 50.18503,-26.60606 123.70807,-16.09584 169.92127,-12.82687 46.7406,3.30637 111.2338,-2.04938 131.231,-48.88191 0.1081,-0.25322 0.56,-0.3315 0.6968,-0.60769 5.8223,-11.75437 8.9619,-39.57412 2.6051,-39.26578 -14.5263,23.25853 -30.8215,44.46488 -54.7321,53.07197 -84.7803,30.51862 -185.1846,-53.15991 -269.47603,-21.31612 -54.48375,20.583 -61.34475,120.66093 -121.56328,125.50537 -103.3335,8.313 -135.78131,-90.669 -215.3714,-107.38537 -2.83078,-0.37679 -0.84713,-1.77713 -1.51913,-0.72319 -0.14353,0.22519 0.0986,0.45262 0.73285,0.47278 47.07243,0.40228 96.96459,8.56884 134.10253,30.38662 30.33796,17.823 52.78284,43.96557 89.88046,40.08066 38.73478,-4.05628 68.36738,-76.83028 91.31775,-116.50312 -30.84825,7.34887 -45.54703,74.0819 -82.63547,82.14562 -57.55293,12.51319 -71.62828,-33.89044 -114.3794,-58.4505 -31.57519,-17.94544 -58.06706,-16.79616 -88.64494,-16.91137 32.43713,-2.37197 71.01385,1.83187 97.60988,12.31321 34.07334,14.74416 66.46706,55.97016 102.27675,50.57372 6.14887,-2.91759 14.44425,-2.83753 16.4204,-11.64562 -68.57418,-10.07831 -83.86922,-74.70085 -162.79912,-75.2731 -104.53369,-0.75768 -144.40847,-6.72365 -186.93131,-7.88043 52.67531,-1.74488 104.35115,5.33812 141.13875,4.49072 45.8505,-7.78885 20.33878,-6.10904 -14.03241,-9.87497 -48.36956,-5.2996 -111.1004,-19.52672 -111.1004,-19.52672 -9.93619,-2.95753 -11.98407,-5.78653 -14.86913,-15.35081 -0.79031,-18.66066 -11.79609,-55.030971 -0.50831,-68.667661 6.01266,-6.46518 21.29775,-2.11331 35.94759,-0.11165 14.64994,2.00156 36.26691,8.30503 62.54578,22.84847 C 558.74306,48.000769 535.89103,33.126959 503.95978,21.707549 479.46075,12.946049 447.17325,-7.1800114 424.43587,2.6357986 401.6984,12.451609 397.23384,40.998679 382.32656,62.690929 367.41919,84.383269 358.22419,109.6742 358.33594,133.8842 v 0 0 0 0 c -1.49297,1.7491 -4.04457,0.19763 -5.58722,1.79213 -54.01369,-1.67606 -108.06019,-1.42078 -159.47729,-2.80078 0.3296,5.70347 3.5644,7.45265 7.612,8.46337 l -0.026,-0.009 c 42.9003,13.66537 99.8908,7.18856 141.53601,21.30403 2.34928,0.82341 4.788,1.43691 6.96534,2.68172 0,0 3.08353,4.29375 -1.42744,7.52025 -4.51097,3.22659 -17.87344,-2.83688 -26.99331,6.56756 -9.1198,9.40453 -25.0415,46.59966 -10.2034,53.63606 0,0 19.92262,-19.58522 31.92599,-14.86528 1.19569,0.61875 2.15082,1.49138 2.80425,2.68331 2.54841,10.11525 10.4821,20.50369 13.07785,30.59878 2.73009,9.17297 -15.75928,19.61953 -11.91469,27.0226 5.53406,8.75025 24.42234,5.18315 30.62625,1.23356 8.40131,-5.46206 9.06094,-5.04394 13.44065,4.01344 3.13407,6.48197 3.88735,12.69403 1.20347,19.71047 -18.00375,46.10578 98.7225,99.27524 50.87907,111.56221 -99.41466,28.344 -130.37084,-35.274 -151.75684,-22.43409 -5.0496,4.55775 0.074,9.79697 0.01,15.40762 -5.7445,1.1641 -11.7053,-0.13368 -17.3836,1.21041 -2.7692,0.80344 -5.2106,1.81603 -7.3773,3.36844 -5.8535,7.01109 -12.6744,12.4605 -20.5358,10.03987 L 9.4555316,368.31883 c -3.3181,-0.26185 -5.4318,-1.10635 -7.3227,1.86459 l 0.02,-0.0366 c -5.0923,8.78381 -0.388,20.31618 6.1747,21.7259 L 255.01783,448.30295 c 8.7971,4.8075 16.7691,9.82247 25.4988,14.17866 3.6415,1.65046 7.3356,3.12965 11.3065,3.81009 2.873,0.23494 5.7188,0.26372 8.4062,-1.00819 1.9649,-1.14703 3.5199,-2.56715 3.3657,-4.16334 7.3196,10.07672 -0.4788,18.12056 -2.1565,27.56644 -7.9162,62.03746 35.12341,115.20149 68.94466,156.91162 5.29931,6.5219 10.54594,13.15509 16.59375,19.06462 1.90519,1.57575 4.0665,3.86822 6.45609,1.851 2.54269,-2.14631 0.9885,-5.27812 0.10922,-7.82756 -29.82018,-58.76681 -40.09753,-118.03172 -22.01568,-164.898 6.91181,-10.83393 14.88993,-14.77631 25.188,-12.99422 6.61378,1.1445 9.66796,4.55775 9.36609,11.32454 24.78684,155.79721 54.03984,248.36165 214.75106,303.67124 1.7505,0.81159 2.34675,-0.30112 2.79169,-1.66969 -1.43278,-6.26765 -7.3576,-8.77706 -11.09091,-13.11468 -32.07787,-34.27219 -63.891,-72.79172 -49.20712,-117.55425 2.39962,-7.00163 3.80812,-7.17638 8.15643,-1.29778 39.71278,56.54231 94.78988,48.58996 132.78122,84.86484 18.46031,17.62622 35.08584,44.03597 44.17331,62.54531 0.42919,0.67922 0.98831,1.22841 1.64653,1.68431 27.327,-13.42584 16.47563,-92.10937 7.09622,-111.40687 -14.18325,-32.50837 -68.84775,-52.51837 -87.64847,-86.16169 41.17538,36.60282 76.8121,72.93872 118.05938,99.75356 50.18962,32.62847 118.64296,38.07722 172.4293,37.06332 z"
     id="path74664"
     style="fill:#11110f;stroke-width:0.9375" />
</svg>
